<svg xmlns="http://www.w3.org/2000/svg" xmlns:xlink="http://www.w3.org/1999/xlink" xmlns:serif="http://www.serif.com/" version="1.1" xml:space="preserve" style="fill-rule:evenodd;clip-rule:evenodd;stroke-linecap:round;" viewBox="19 19 26 26">
    <g id="day">
        <g transform="matrix(1,0,0,1,32,32)">
            <g>
                <g transform="matrix(1,0,0,1,0,9)">
                    <path d="M0,0L0,3" style="fill:none;fill-rule:nonzero;stroke:rgb(255,165,0);stroke-width:2px;"/>
                </g>
                <g transform="matrix(0.707107,0.707107,-0.707107,0.707107,-6.36396,6.36396)">
                    <path d="M0,0L0,3" style="fill:none;fill-rule:nonzero;stroke:rgb(255,165,0);stroke-width:2px;"/>
                </g>
                <g transform="matrix(-3.82857e-16,1,-1,-3.82857e-16,-9,-3.44571e-15)">
                    <path d="M0,0L0,3" style="fill:none;fill-rule:nonzero;stroke:rgb(255,165,0);stroke-width:2px;"/>
                </g>
                <g transform="matrix(-0.707107,0.707107,-0.707107,-0.707107,-6.36396,-6.36396)">
                    <path d="M0,0L0,3" style="fill:none;fill-rule:nonzero;stroke:rgb(255,165,0);stroke-width:2px;"/>
                </g>
                <g transform="matrix(-1,-7.65714e-16,7.65714e-16,-1,6.89142e-15,-9)">
                    <path d="M0,0L0,3" style="fill:none;fill-rule:nonzero;stroke:rgb(255,165,0);stroke-width:2px;"/>
                </g>
                <g transform="matrix(-0.707107,-0.707107,0.707107,-0.707107,6.36396,-6.36396)">
                    <path d="M0,0L0,3" style="fill:none;fill-rule:nonzero;stroke:rgb(255,165,0);stroke-width:2px;"/>
                </g>
                <g transform="matrix(7.04481e-16,-1,1,7.04481e-16,9,6.34033e-15)">
                    <path d="M0,0L0,3" style="fill:none;fill-rule:nonzero;stroke:rgb(255,165,0);stroke-width:2px;"/>
                </g>
                <g transform="matrix(0.707107,-0.707107,0.707107,0.707107,6.36396,6.36396)">
                    <path d="M0,0L0,3" style="fill:none;fill-rule:nonzero;stroke:rgb(255,165,0);stroke-width:2px;"/>
                </g>
            </g>
            <circle cx="0" cy="0" r="5" style="fill:rgb(255,165,0);stroke:rgb(255,165,0);stroke-width:2px;stroke-linecap:butt;"/>
        </g>
        <g transform="matrix(-0.365348,-1.17961e-16,2.15106e-16,-0.669289,43.6726,55.4326)">
            <rect x="31.329" y="31.857" width="1.119" height="6.393" style="fill:white;stroke:white;stroke-width:1.85px;stroke-linejoin:round;stroke-miterlimit:1.5;"/>
        </g>
        <g transform="matrix(-1.18662,-3.7817e-16,2.60209e-16,-0.81297,68.3489,59.8764)">
            <path d="M30.61,29.796L31.978,32.426L29.243,32.426L30.61,29.796Z" style="fill:white;"/>
        </g>
    </g>
</svg>