<?xml version="1.0" encoding="UTF-8" standalone="no"?>
<!DOCTYPE svg PUBLIC "-//W3C//DTD SVG 1.1//EN" "http://www.w3.org/Graphics/SVG/1.1/DTD/svg11.dtd">
<svg width="100%" height="100%" viewBox="0 0 800 800" version="1.1" xmlns="http://www.w3.org/2000/svg" xmlns:xlink="http://www.w3.org/1999/xlink" xml:space="preserve" xmlns:serif="http://www.serif.com/" style="fill-rule:evenodd;clip-rule:evenodd;stroke-linejoin:round;stroke-miterlimit:2;">
    <path d="M799.68,360.009L798.6,360.009C799.067,364.062 799.387,368.155 799.387,372.341C799.387,379.714 793.427,385.674 786.054,385.674C778.681,385.674 772.721,379.714 772.721,372.341C772.721,328.224 736.843,292.345 692.725,292.345C648.608,292.345 612.729,328.224 612.729,372.341C612.729,379.714 606.77,385.674 599.397,385.674C592.024,385.674 586.064,379.714 586.064,372.341C586.064,318.157 626.715,273.373 679.099,266.653C676.086,199.47 620.649,145.686 552.732,145.686C484.589,145.686 428.992,199.817 426.325,267.32C437.378,269.933 448.084,274.253 458.03,280.399C482.243,295.399 499.175,318.931 505.708,346.663C507.388,353.836 502.948,361.009 495.789,362.702C488.616,364.315 481.443,359.942 479.749,352.782C469.643,309.825 426.432,283.106 383.567,293.225C340.623,303.332 313.904,346.476 324.01,389.421C325.69,396.58 321.251,403.753 314.078,405.446C313.064,405.686 312.038,405.793 311.024,405.793C304.985,405.793 299.505,401.647 298.052,395.514C294.132,378.834 294.479,362.155 298.212,346.529C270.773,342.516 243.055,352.876 224.975,374.821C208.203,395.207 203.31,421.459 209.31,445.284C209.323,445.444 209.403,445.578 209.416,445.738C213.496,461.55 222.349,476.27 235.882,487.429C241.561,492.122 242.375,500.508 237.708,506.201C235.068,509.401 231.255,511.054 227.402,511.054C224.415,511.054 221.429,510.068 218.936,508.015C202.71,494.655 191.097,477.203 184.991,457.604C131.087,443.551 74.41,466.23 45.131,514.428C27.572,543.333 22.306,577.358 30.332,610.223C38.358,643.101 58.69,670.873 87.609,688.446C93.902,692.272 95.902,700.458 92.075,706.765C89.569,710.898 85.169,713.164 80.676,713.164C78.903,713.164 77.143,712.684 75.45,711.951C96.515,724.43 120.767,732.07 146.699,733.19L256.147,733.23C326.904,732.097 387.514,688.432 413.353,626.675C439.525,689.246 501.388,733.337 573.345,733.337C698.325,733.337 800,631.662 800,506.681L800,373.355L799.68,360.009Z" style="fill:rgb(208,232,249);fill-rule:nonzero;"/>
    <g>
        <path d="M705.778,267.56C702.698,185.711 635.328,120.021 552.746,120.021C470.856,120.021 403.953,184.604 399.82,265.48C392.38,265.64 384.901,266.52 377.474,268.267C346.329,275.6 321.677,296.025 307.758,322.291C269.333,314.491 229.789,328.064 204.43,358.849C187.751,379.114 179.378,404.286 180.298,430.298C118.567,419.179 55.771,446.618 22.386,501.548C1.107,536.547 -5.253,577.731 4.453,617.516C14.159,657.3 38.785,690.925 73.783,712.204C75.943,713.524 78.343,714.151 80.703,714.151C85.209,714.151 89.596,711.871 92.102,707.751C95.929,701.445 93.929,693.259 87.636,689.432C58.717,671.86 38.385,644.088 30.358,611.209C22.332,578.344 27.599,544.319 45.158,515.414C74.436,467.23 131.113,444.551 185.017,458.59C191.124,478.203 202.75,495.642 218.962,509.001C221.456,511.041 224.442,512.041 227.429,512.041C231.282,512.041 235.095,510.388 237.735,507.188C242.415,501.495 241.588,493.095 235.908,488.416C222.362,477.269 213.523,462.537 209.443,446.724C209.43,446.564 209.35,446.431 209.336,446.271C203.336,422.446 208.23,396.194 225.002,375.808C243.081,353.862 270.8,343.503 298.238,347.516C294.505,363.155 294.145,379.821 298.078,396.5C299.518,402.647 305.011,406.78 311.051,406.78C312.064,406.78 313.091,406.66 314.104,406.433C321.277,404.74 325.717,397.567 324.037,390.407C313.931,347.463 340.65,304.318 383.594,294.212C426.459,284.092 469.67,310.811 479.776,353.769C481.469,360.929 488.642,365.302 495.815,363.688C502.975,361.995 507.415,354.822 505.735,347.649C499.202,319.917 482.269,296.385 458.057,281.386C448.111,275.226 437.405,270.92 426.352,268.307C429.019,200.803 484.616,146.673 552.759,146.673C620.676,146.673 676.126,200.443 679.126,267.64C626.742,274.36 586.091,319.144 586.091,373.328C586.091,380.701 592.05,386.661 599.423,386.661C606.796,386.661 612.756,380.701 612.756,373.328C612.756,329.21 648.634,293.332 692.752,293.332C736.87,293.332 773.361,329.21 773.361,373.328L773.361,413.326C773.361,420.686 779.334,426.659 786.694,426.659C794.054,426.659 800.027,420.686 800.027,413.326L800.027,373.328C800,318.944 758.442,274.013 705.778,267.56Z" style="fill:rgb(171,202,221);fill-rule:nonzero;"/>
    </g>
    <g>
        <path d="M573.345,733.323C507.041,733.323 446.804,698.552 413.353,642.808C379.901,698.552 319.664,733.323 253.361,733.323C246.001,733.323 240.028,727.364 240.028,719.991C240.028,712.618 246.001,706.658 253.361,706.658C318.064,706.658 376.035,668.007 401.06,608.183L413.353,578.771L425.645,608.183C450.657,667.993 508.641,706.658 573.345,706.658C580.704,706.658 586.677,712.618 586.677,719.991C586.677,727.364 580.718,733.323 573.345,733.323Z" style="fill:rgb(171,202,221);fill-rule:nonzero;"/>
    </g>
    <path d="M731.977,544.986C725.87,491.935 680.739,450.564 626.075,450.564C567.265,450.564 519.414,498.415 519.414,557.225C519.414,564.585 525.387,570.558 532.747,570.558C540.106,570.558 546.079,564.585 546.079,557.225C546.079,513.108 581.958,477.229 626.075,477.229C666.113,477.229 699.272,506.815 705.071,545.253C667.78,552.039 639.408,584.677 639.408,623.889C639.408,631.248 645.381,637.221 652.741,637.221C660.1,637.221 666.073,631.248 666.073,623.889C666.073,594.477 689.992,570.558 719.404,570.558C748.816,570.558 772.735,594.477 772.735,623.889C772.735,631.248 778.708,637.221 786.067,637.221C793.427,637.221 799.4,631.248 799.4,623.889C799.4,584.077 770.121,551.052 731.977,544.986Z" style="fill:rgb(171,202,221);fill-rule:nonzero;"/>
</svg>
