<?xml version="1.0" encoding="UTF-8" standalone="no"?>
<!DOCTYPE svg PUBLIC "-//W3C//DTD SVG 1.1//EN" "http://www.w3.org/Graphics/SVG/1.1/DTD/svg11.dtd">
<svg width="100%" height="100%" viewBox="0 0 800 800" version="1.1" xmlns="http://www.w3.org/2000/svg" xmlns:xlink="http://www.w3.org/1999/xlink" xml:space="preserve" xmlns:serif="http://www.serif.com/" style="fill-rule:evenodd;clip-rule:evenodd;stroke-linejoin:round;stroke-miterlimit:2;">
    <path d="M799.68,340.01L798.6,340.01C799.067,344.063 799.387,348.156 799.387,352.342C799.387,359.715 793.427,365.675 786.054,365.675C778.681,365.675 772.721,359.715 772.721,352.342C772.721,308.225 736.843,272.346 692.725,272.346C648.608,272.346 612.729,308.225 612.729,352.342C612.729,359.715 606.77,365.675 599.397,365.675C592.024,365.675 586.064,359.715 586.064,352.342C586.064,298.158 626.715,253.374 679.099,246.654C676.086,179.471 620.649,125.687 552.732,125.687C484.589,125.687 428.992,179.818 426.325,247.321C437.378,249.934 448.084,254.254 458.03,260.4C482.243,275.4 499.175,298.932 505.708,326.664C507.388,333.837 502.948,341.01 495.789,342.703C488.616,344.316 481.443,339.943 479.749,332.783C469.643,289.826 426.432,263.107 383.567,273.226C340.623,283.333 313.904,326.477 324.01,369.422C325.69,376.581 321.251,383.754 314.078,385.447C313.064,385.687 312.038,385.794 311.024,385.794C304.985,385.794 299.505,381.648 298.052,375.515C294.132,358.835 294.479,342.156 298.212,326.53C270.773,322.517 243.055,332.877 224.975,354.822C208.203,375.208 203.31,401.46 209.31,425.285C209.323,425.445 209.403,425.579 209.416,425.739C213.496,441.551 222.349,456.271 235.882,467.43C241.561,472.123 242.375,480.509 237.708,486.202C235.068,489.402 231.255,491.055 227.402,491.055C224.415,491.055 221.429,490.069 218.936,488.016C202.71,474.656 191.097,457.204 184.991,437.605C131.087,423.552 74.41,446.231 45.131,494.429C27.572,523.334 22.306,557.359 30.332,590.224C38.358,623.102 58.69,650.874 87.609,668.447C93.902,672.273 95.902,680.459 92.075,686.766C89.569,690.899 85.169,693.165 80.676,693.165C78.903,693.165 77.143,692.685 75.45,691.952C96.515,704.431 120.767,712.071 146.699,713.191L256.147,713.231C326.904,712.098 387.514,668.433 413.353,606.676C439.525,669.247 501.388,713.338 573.345,713.338C698.325,713.338 800,611.663 800,486.682L800,353.356L799.68,340.01Z" style="fill:rgb(208,232,249);fill-rule:nonzero;"/>
    <g>
        <path d="M705.778,247.561C702.698,165.712 635.328,100.022 552.746,100.022C470.856,100.022 403.953,164.605 399.82,245.481C392.38,245.641 384.901,246.521 377.474,248.268C346.329,255.601 321.677,276.026 307.758,302.292C269.333,294.492 229.789,308.065 204.43,338.85C187.751,359.115 179.378,384.287 180.298,410.299C118.567,399.18 55.771,426.619 22.386,481.549C1.107,516.548 -5.253,557.732 4.453,597.517C14.159,637.301 38.785,670.926 73.783,692.205C75.943,693.525 78.343,694.152 80.703,694.152C85.209,694.152 89.596,691.872 92.102,687.752C95.929,681.446 93.929,673.26 87.636,669.433C58.717,651.861 38.385,624.089 30.358,591.21C22.332,558.345 27.599,524.32 45.158,495.415C74.436,447.231 131.113,424.552 185.017,438.591C191.124,458.204 202.75,475.643 218.962,489.002C221.456,491.042 224.442,492.042 227.429,492.042C231.282,492.042 235.095,490.389 237.735,487.189C242.415,481.496 241.588,473.096 235.908,468.417C222.362,457.27 213.523,442.538 209.443,426.725C209.43,426.565 209.35,426.432 209.336,426.272C203.336,402.447 208.23,376.195 225.002,355.809C243.081,333.863 270.8,323.504 298.238,327.517C294.505,343.156 294.145,359.822 298.078,376.501C299.518,382.648 305.011,386.781 311.051,386.781C312.064,386.781 313.091,386.661 314.104,386.434C321.277,384.741 325.717,377.568 324.037,370.408C313.931,327.464 340.65,284.319 383.594,274.213C426.459,264.093 469.67,290.812 479.776,333.77C481.469,340.93 488.642,345.303 495.815,343.689C502.975,341.996 507.415,334.823 505.735,327.65C499.202,299.918 482.269,276.386 458.057,261.387C448.111,255.227 437.405,250.921 426.352,248.308C429.019,180.804 484.616,126.674 552.759,126.674C620.676,126.674 676.126,180.444 679.126,247.641C626.742,254.361 586.091,299.145 586.091,353.329C586.091,360.702 592.05,366.662 599.423,366.662C606.796,366.662 612.756,360.702 612.756,353.329C612.756,309.211 648.634,273.333 692.752,273.333C736.87,273.333 773.361,309.211 773.361,353.329L773.361,393.327C773.361,400.687 779.334,406.66 786.694,406.66C794.054,406.66 800.027,400.687 800.027,393.327L800.027,353.329C800,298.945 758.442,254.014 705.778,247.561Z" style="fill:rgb(171,202,221);fill-rule:nonzero;"/>
        <path d="M640.008,526.667C647.368,526.667 653.341,520.694 653.341,513.334C653.341,494.109 653.341,506.668 653.341,506.668C653.341,473.59 680.259,446.671 713.338,446.671C746.416,446.671 773.335,473.59 773.335,506.668C773.335,514.041 779.308,520.001 786.667,520.001C794.027,520.001 800,514.041 800,506.668C800,458.884 761.122,420.006 713.338,420.006C667.807,420.006 630.102,455.324 626.675,500.002L626.675,513.334C626.675,520.694 632.648,526.667 640.008,526.667Z" style="fill:rgb(171,202,221);fill-rule:nonzero;"/>
    </g>
    <g>
        <path d="M390.594,610.569L350.596,650.567C345.383,655.781 345.383,664.207 350.596,669.42C353.196,672.02 356.609,673.326 360.022,673.326C363.435,673.326 366.848,672.02 369.448,669.42L409.446,629.422C414.659,624.209 414.659,615.783 409.446,610.569C404.233,605.356 395.807,605.356 390.594,610.569Z" style="fill:rgb(171,197,211);fill-rule:nonzero;"/>
        <path d="M310.598,690.565L270.6,730.563C265.387,735.777 265.387,744.203 270.6,749.416C273.2,752.016 276.613,753.322 280.026,753.322C283.439,753.322 286.852,752.016 289.452,749.416L329.45,709.418C334.663,704.205 334.663,695.779 329.45,690.565C324.237,685.352 315.811,685.352 310.598,690.565Z" style="fill:rgb(171,197,211);fill-rule:nonzero;"/>
        <path d="M596.104,530.573C590.89,525.36 582.464,525.36 577.251,530.573L537.253,570.571C532.04,575.785 532.04,584.211 537.253,589.424C539.853,592.024 543.266,593.33 546.679,593.33C550.092,593.33 553.506,592.024 556.106,589.424L596.104,549.426C601.317,544.213 601.317,535.773 596.104,530.573Z" style="fill:rgb(171,197,211);fill-rule:nonzero;"/>
        <path d="M497.255,610.569L457.257,650.567C452.044,655.781 452.044,664.207 457.257,669.42C459.857,672.02 463.27,673.326 466.683,673.326C470.096,673.326 473.51,672.02 476.11,669.42L516.108,629.422C521.321,624.209 521.321,615.783 516.108,610.569C510.894,605.356 502.468,605.356 497.255,610.569Z" style="fill:rgb(171,197,211);fill-rule:nonzero;"/>
        <path d="M382.781,530.573C377.568,525.36 369.142,525.36 363.928,530.573L323.93,570.571C318.717,575.785 318.717,584.211 323.93,589.424C326.53,592.024 329.944,593.33 333.357,593.33C336.77,593.33 340.183,592.024 342.783,589.424L382.781,549.426C387.994,544.213 387.994,535.773 382.781,530.573Z" style="fill:rgb(171,197,211);fill-rule:nonzero;"/>
        <path d="M489.442,530.573C484.229,525.36 475.803,525.36 470.59,530.573L430.592,570.571C425.379,575.785 425.379,584.211 430.592,589.424C433.192,592.024 436.605,593.33 440.018,593.33C443.431,593.33 446.844,592.024 449.444,589.424L489.442,549.426C494.655,544.213 494.655,535.773 489.442,530.573Z" style="fill:rgb(171,197,211);fill-rule:nonzero;"/>
        <path d="M302.785,610.569C297.572,605.356 289.146,605.356 283.932,610.569L243.934,650.567C238.721,655.781 238.721,664.207 243.934,669.42C246.534,672.02 249.948,673.326 253.361,673.326C256.774,673.326 260.187,672.02 262.787,669.42L302.785,629.422C307.998,624.209 307.998,615.769 302.785,610.569Z" style="fill:rgb(171,197,211);fill-rule:nonzero;"/>
    </g>
</svg>
