<?xml version="1.0" encoding="UTF-8" standalone="no"?>
<!DOCTYPE svg PUBLIC "-//W3C//DTD SVG 1.1//EN" "http://www.w3.org/Graphics/SVG/1.1/DTD/svg11.dtd">
<svg width="100%" height="100%" viewBox="0 0 800 800" version="1.1" xmlns="http://www.w3.org/2000/svg" xmlns:xlink="http://www.w3.org/1999/xlink" xml:space="preserve" xmlns:serif="http://www.serif.com/" style="fill-rule:evenodd;clip-rule:evenodd;stroke-linejoin:round;stroke-miterlimit:2;">
    <path d="M747.09,153.65L418.545,741.143C411.76,753.27 394.335,753.343 387.448,741.273L52.39,153.705C44.89,140.55 56.135,124.618 71.04,127.28L399.94,186.07C402.038,186.445 404.186,186.442 406.282,186.06L728.303,127.365C743.158,124.658 754.46,140.468 747.09,153.647L747.09,153.65Z" style="fill:white;fill-rule:nonzero;"/>
    <path d="M556.61,50.173L313.477,97.812C309.494,98.592 306.519,101.995 306.28,106.047L291.325,358.643C290.975,364.592 296.437,369.21 302.242,367.87L369.935,352.25C376.27,350.787 381.992,356.367 380.69,362.735L360.58,461.217C359.225,467.842 365.447,473.513 371.92,471.547L413.73,458.842C420.212,456.875 426.44,462.56 425.07,469.193L393.11,623.885C391.11,633.56 403.98,638.835 409.347,630.54L412.932,625L611.05,229.62C614.367,223 608.65,215.452 601.375,216.855L531.7,230.302C525.15,231.565 519.58,225.467 521.428,219.06L566.905,61.41C568.755,54.99 563.165,48.887 556.61,50.172Z" style="fill:white;fill-rule:nonzero;stroke:black;stroke-width:4.5px;"/>
</svg>
